<svg width="24" height="24" viewBox="0 0 24 24" fill="none" xmlns="http://www.w3.org/2000/svg">
<path d="M21 9.99994C21 16.9999 12 22.9999 12 22.9999C12 22.9999 3 16.9999 3 9.99994C3 7.61299 3.94821 5.32381 5.63604 3.63598C7.32387 1.94815 9.61305 0.999939 12 0.999939C14.3869 0.999939 16.6761 1.94815 18.364 3.63598C20.0518 5.32381 21 7.61299 21 9.99994Z" stroke="#DA2535" stroke-width="2" stroke-linecap="round" stroke-linejoin="round"/>
<path d="M12 12.9999C13.6569 12.9999 15 11.6568 15 9.99994C15 8.34308 13.6569 6.99994 12 6.99994C10.3431 6.99994 9 8.34308 9 9.99994C9 11.6568 10.3431 12.9999 12 12.9999Z" stroke="#DA2535" stroke-width="2" stroke-linecap="round" stroke-linejoin="round"/>
</svg>
